<svg xmlns="http://www.w3.org/2000/svg" viewBox="0 0 100 100">
  <defs>
    <linearGradient id="grad" x1="0%" y1="0%" x2="100%" y2="100%">
      <stop offset="0%" style="stop-color:#4f46e5;stop-opacity:1" />
      <stop offset="100%" style="stop-color:#7e22ce;stop-opacity:1" />
    </linearGradient>
  </defs>
  <rect x="0" y="0" width="100" height="100" rx="22" fill="url(#grad)" />
  
  <!-- Graduation Cap (Center) -->
  <g transform="translate(26, 26) scale(2)" fill="none" stroke="white" stroke-width="2.5" stroke-linecap="round" stroke-linejoin="round">
    <path d="M22 10v6M2 10l10-5 10 5-10 5z" />
    <path d="M6 12v5c3 3 9 3 12 0v-5" />
  </g>
  
  <!-- Book Open (Bottom Right) -->
  <g transform="translate(58, 58) scale(1)" fill="none" stroke="white" stroke-width="2.5" stroke-linecap="round" stroke-linejoin="round" opacity="0.9">
    <path d="M2 3h6a4 4 0 0 1 4 4v14a3 3 0 0 0-3-3H2z" />
    <path d="M22 3h-6a4 4 0 0 0-4 4v14a3 3 0 0 1 3-3h7z" />
  </g>
</svg>